<?xml version="1.0" encoding="UTF-8"?>
<svg version="1.1" xmlns="http://www.w3.org/2000/svg" width="1024" height="1024">
<path d="M0 0 C337.92 0 675.84 0 1024 0 C1024 337.92 1024 675.84 1024 1024 C686.08 1024 348.16 1024 0 1024 C0 686.08 0 348.16 0 0 Z " fill="#F9F9F5" transform="translate(0,0)"/>
<path d="M0 0 C1.175625 0.2163208 1.175625 0.2163208 2.375 0.43701172 C7.33444197 1.3635379 12.15880974 2.58386952 17 4 C18.41804932 4.41064697 18.41804932 4.41064697 19.86474609 4.82958984 C55.23958487 15.30756769 87.48503274 32.56413526 114.55859375 57.74609375 C116.64051229 59.66812095 118.76425897 61.49625955 120.9375 63.3125 C159.50198371 97.0956148 184.68183613 149.94711417 192 200 C192.17732666 201.19810303 192.35465332 202.39620605 192.53735352 203.63061523 C194.04402592 214.55673655 194.34075517 225.38991528 194.31567383 236.40991211 C194.31251471 239.29905032 194.33607837 242.18715913 194.36132812 245.07617188 C194.40349659 257.64625081 193.23022496 269.63841192 191 282 C190.72794805 283.57192638 190.45597419 285.14386628 190.18408203 286.71582031 C180.31483275 342.51021715 147.33259032 395.11139432 103 430 C102.06027344 430.76828125 101.12054687 431.5365625 100.15234375 432.328125 C68.49500389 457.65399689 29.66879046 473.74961428 -10.125 480.6875 C-10.80506104 480.80722168 -11.48512207 480.92694336 -12.18579102 481.05029297 C-72.53860875 490.84953685 -136.5788929 475.48372465 -186.203125 440.03125 C-190.20667029 437.10983334 -194.11772288 434.08009325 -198 431 C-198.54398437 430.57315918 -199.08796875 430.14631836 -199.6484375 429.70654297 C-215.18797796 417.41890261 -229.37101899 403.03510927 -241 387 C-241.85491814 385.85115255 -242.71039429 384.70272016 -243.56640625 383.5546875 C-281.68836907 331.87824901 -297.24898439 265.48017929 -287.76806641 202.11108398 C-286.11266473 191.89995115 -283.9631316 181.91067809 -281 172 C-280.62319092 170.73349609 -280.62319092 170.73349609 -280.23876953 169.44140625 C-268.93467914 132.17182714 -249.17576645 97.95323823 -222 70 C-221.4519873 69.43152344 -220.90397461 68.86304688 -220.33935547 68.27734375 C-212.96117651 60.64999938 -205.47119283 53.42344901 -197 47 C-196.37706055 46.52240234 -195.75412109 46.04480469 -195.11230469 45.55273438 C-166.99095492 24.11804632 -134.60936522 8.54330342 -100 1 C-98.98663574 0.77151367 -97.97327148 0.54302734 -96.92919922 0.30761719 C-65.19018339 -6.61640722 -31.82326916 -6.25985341 0 0 Z " fill="#F9F8F5" transform="translate(560,233)"/>
<path d="M0 0 C1.175625 0.2163208 1.175625 0.2163208 2.375 0.43701172 C7.33444197 1.3635379 12.15880974 2.58386952 17 4 C18.41804932 4.41064697 18.41804932 4.41064697 19.86474609 4.82958984 C55.23958487 15.30756769 87.48503274 32.56413526 114.55859375 57.74609375 C116.64051229 59.66812095 118.76425897 61.49625955 120.9375 63.3125 C159.50198371 97.0956148 184.68183613 149.94711417 192 200 C192.17732666 201.19810303 192.35465332 202.39620605 192.53735352 203.63061523 C194.04402592 214.55673655 194.34075517 225.38991528 194.31567383 236.40991211 C194.31251471 239.29905032 194.33607837 242.18715913 194.36132812 245.07617188 C194.40349659 257.64625081 193.23022496 269.63841192 191 282 C190.72794805 283.57192638 190.45597419 285.14386628 190.18408203 286.71582031 C180.31483275 342.51021715 147.33259032 395.11139432 103 430 C102.06027344 430.76828125 101.12054687 431.5365625 100.15234375 432.328125 C68.49500389 457.65399689 29.66879046 473.74961428 -10.125 480.6875 C-10.80506104 480.80722168 -11.48512207 480.92694336 -12.18579102 481.05029297 C-72.53860875 490.84953685 -136.5788929 475.48372465 -186.203125 440.03125 C-190.20667029 437.10983334 -194.11772288 434.08009325 -198 431 C-198.54398437 430.57315918 -199.08796875 430.14631836 -199.6484375 429.70654297 C-215.18797796 417.41890261 -229.37101899 403.03510927 -241 387 C-241.85491814 385.85115255 -242.71039429 384.70272016 -243.56640625 383.5546875 C-281.68836907 331.87824901 -297.24898439 265.48017929 -287.76806641 202.11108398 C-286.11266473 191.89995115 -283.9631316 181.91067809 -281 172 C-280.62319092 170.73349609 -280.62319092 170.73349609 -280.23876953 169.44140625 C-268.93467914 132.17182714 -249.17576645 97.95323823 -222 70 C-221.4519873 69.43152344 -220.90397461 68.86304688 -220.33935547 68.27734375 C-212.96117651 60.64999938 -205.47119283 53.42344901 -197 47 C-196.37706055 46.52240234 -195.75412109 46.04480469 -195.11230469 45.55273438 C-166.99095492 24.11804632 -134.60936522 8.54330342 -100 1 C-98.98663574 0.77151367 -97.97327148 0.54302734 -96.92919922 0.30761719 C-65.19018339 -6.61640722 -31.82326916 -6.25985341 0 0 Z M-92 39 C-92.91942383 39.20898926 -93.83884766 39.41797852 -94.78613281 39.63330078 C-108.88829507 42.89836957 -121.90286461 47.88979088 -135 54 C-135.71881348 54.32726074 -136.43762695 54.65452148 -137.17822266 54.99169922 C-157.95405429 64.49076991 -175.46973122 78.40289155 -192 94 C-192.8559375 94.80179688 -193.711875 95.60359375 -194.59375 96.4296875 C-201.47197334 103.06847901 -207.34985034 110.3126655 -213 118 C-213.41749512 118.56783203 -213.83499023 119.13566406 -214.26513672 119.72070312 C-225.9632567 135.88740285 -235.03973183 153.97014044 -241.29956055 172.89550781 C-241.76766017 174.30192774 -242.25366606 175.70251019 -242.75708008 177.09667969 C-245.00882552 183.44661618 -246.32672779 189.88544072 -247.5625 196.5 C-247.8867395 198.22585327 -247.8867395 198.22585327 -248.2175293 199.98657227 C-258.06149165 253.4525055 -247.4938537 308.69164813 -217 354 C-211.1783254 362.37487598 -204.97105277 370.36370323 -198.015625 377.83203125 C-196.09090389 379.90222547 -194.26252513 382.02953109 -192.4375 384.1875 C-188.9224469 388.1967329 -185.10865718 391.60986792 -181 395 C-180.50032715 395.42265137 -180.0006543 395.84530273 -179.48583984 396.28076172 C-164.75156189 408.72025057 -148.61519814 419.11758602 -131 427 C-129.87803223 427.50225098 -129.87803223 427.50225098 -128.73339844 428.01464844 C-92.26258872 444.04494656 -49.17149516 449.46051001 -10 441 C-9.175 440.83371094 -8.35 440.66742187 -7.5 440.49609375 C12.42015424 436.44606239 31.10283317 429.59644466 49 420 C49.93328125 419.53335937 50.8665625 419.06671875 51.828125 418.5859375 C69.52028457 409.52797556 84.83923101 396.26974409 98.875 382.375 C99.57689453 381.68253174 100.27878906 380.99006348 101.00195312 380.27661133 C105.76908983 375.47942488 109.95653038 370.4161278 114 365 C114.42571289 364.44425293 114.85142578 363.88850586 115.29003906 363.31591797 C133.51615359 339.43156991 145.51839781 312.0613038 152.25 282.875 C152.40114258 282.23232178 152.55228516 281.58964355 152.70800781 280.92749023 C155.76139398 266.82711833 156.37992693 252.56151617 156.3125 238.1875 C156.31034485 237.35483612 156.3081897 236.52217224 156.30596924 235.66427612 C156.25438849 223.22064539 155.82862758 211.16662806 153 199 C152.69400879 197.64793457 152.69400879 197.64793457 152.38183594 196.26855469 C147.88345816 176.81487147 141.4560394 158.5849965 132 141 C131.68981934 140.40912598 131.37963867 139.81825195 131.06005859 139.20947266 C118.72218708 115.79296243 99.95447024 94.05475947 79 78 C78.36594238 77.51128418 77.73188477 77.02256836 77.07861328 76.51904297 C29.69988525 40.31317573 -33.50856961 25.07600937 -92 39 Z " fill="#0A2B3E" transform="translate(560,233)"/>
<path d="M0 0 C10.00876171 0.10325383 16.45546439 1.2218485 23.93554688 8.25341797 C27.75115387 12.48148219 31.17600419 16.88676819 34.52685547 21.48632812 C39.46887987 27.53801361 44.96087945 33.01374097 50.52685547 38.48632812 C59.09249381 46.9082477 59.09249381 46.9082477 62.99560547 51.45507812 C67.08888304 56.21799327 71.55332484 60.58346939 76.02685547 64.98632812 C81.15716334 70.03558848 86.192851 75.08086297 90.84130859 80.58203125 C92.97029277 82.98731465 95.24060177 85.23115349 97.52685547 87.48632812 C103.40662121 81.62984681 109.28359587 75.77058424 115.15713596 69.9078598 C117.8852402 67.18494942 120.6142562 64.46296673 123.34545898 61.74316406 C125.98665839 59.11291886 128.62532781 56.48015888 131.26234245 53.84571838 C132.26324752 52.84664517 133.26502457 51.84844468 134.26773262 50.85118103 C141.65096077 43.50641088 148.67653043 36.19574974 154.71772766 27.70153809 C163.63758538 15.4509772 173.9995994 2.49980806 189.70410156 0.00585938 C206.53787894 -1.69370245 223.75785673 -0.33132665 240.52685547 1.48632812 C243.9527734 8.338164 242.1895069 19.58258443 242.31640625 27.11132812 C242.3651004 29.75669417 242.45425312 32.39148726 242.5625 35.03613281 C243.58334427 60.46443556 243.58334427 60.46443556 235.35107422 69.81835938 C233.68492694 71.5381067 231.98045244 73.18690797 230.22019958 74.80993652 C227.24757685 77.75279955 224.89536691 81.15777694 222.46435547 84.54882812 C218.06490729 90.49390659 213.52317476 96.30212904 208.8815918 102.05957031 C205.34263021 106.45308279 201.87574555 110.89253643 198.44726562 115.37304688 C194.91293543 119.99090451 191.34898666 124.58515699 187.77685547 129.17382812 C187.18694824 129.93179688 186.59704102 130.68976563 185.98925781 131.47070312 C183.55823017 134.59377513 181.1265076 137.71630575 178.69482422 140.83886719 C170.08592797 151.89331525 170.08592797 151.89331525 161.52685547 162.98632812 C157.50103806 168.22786267 153.45649611 173.45455666 149.40185547 178.67382812 C148.83982422 179.39828125 148.27779297 180.12273437 147.69873047 180.86914062 C144.59730695 184.85771552 141.46721128 188.82141263 138.30859375 192.76489258 C137.59760529 193.65279984 136.88661682 194.54070709 136.15408325 195.45552063 C135.61709808 196.1256871 135.08011292 196.79585358 134.52685547 197.48632812 C135.07038571 197.48871648 135.61391596 197.49110483 136.17391682 197.49356556 C149.39389568 197.55267915 162.61368944 197.6283952 175.83347034 197.72204304 C182.22645121 197.76682661 188.61936717 197.8060651 195.01245117 197.83276367 C201.17874519 197.85871693 207.34479046 197.89906262 213.51093102 197.94951439 C215.86688844 197.96623719 218.22288893 197.97771762 220.57889748 197.98394203 C223.87146897 197.99352425 227.16339626 198.02151324 230.45581055 198.05395508 C231.436203 198.05251999 232.41659546 198.0510849 233.42669678 198.04960632 C234.3227211 198.06214447 235.21874542 198.07468262 236.141922 198.08760071 C236.92083707 198.09220967 237.69975214 198.09681864 238.5022707 198.10156727 C241.08660438 198.59270523 241.97239289 199.38861709 243.52685547 201.48632812 C243.83716022 204.10826268 243.97116118 206.48842304 243.96044922 209.11132812 C243.96569107 209.85463379 243.97093292 210.59793945 243.97633362 211.36376953 C243.98275155 212.93390657 243.98141971 214.50409171 243.97290039 216.07421875 C243.96438468 218.47808248 243.99315908 220.87957392 244.02490234 223.28320312 C244.02651433 224.80924408 244.02593687 226.33528924 244.02294922 227.86132812 C244.0341832 228.5801416 244.04541718 229.29895508 244.05699158 230.03955078 C243.98759018 235.00217913 243.98759018 235.00217913 241.91859627 237.17631817 C238.72591786 238.92501958 236.39388102 238.86105081 232.7572937 238.86054993 C232.07741744 238.86452433 231.39754118 238.86849874 230.69706261 238.87259358 C228.41989905 238.8822149 226.14335703 238.8704001 223.86621094 238.85864258 C222.23341642 238.86107056 220.60062339 238.86478994 218.96783447 238.8697052 C214.53411484 238.87911548 210.10061591 238.86968843 205.66691351 238.85637307 C201.0313701 238.84506587 196.39583766 238.84916542 191.76028442 238.85112 C183.97752267 238.85200303 176.194848 238.84091922 168.41210938 238.82250977 C159.40523149 238.80132715 150.39848108 238.79783536 141.39158332 238.80407172 C132.73539471 238.80975906 124.07925112 238.80412813 115.423069 238.79289818 C111.7348968 238.78824534 108.04675207 238.78738127 104.35857773 238.78948402 C100.01984407 238.79136267 95.68124084 238.78329589 91.34253693 238.76742363 C89.74694737 238.76316844 88.15134461 238.76233847 86.5557518 238.76511383 C84.38450635 238.7683185 82.21365487 238.75929786 80.04244995 238.74702454 C78.21679662 238.74394523 78.21679662 238.74394523 76.3542614 238.74080372 C73.52685547 238.48632812 73.52685547 238.48632812 71.52685547 236.48632812 C69.71585847 227.45787041 69.0994554 215.7508779 73.97216797 207.67773438 C76.60662707 204.03324707 79.58542013 200.72722922 82.67919922 197.46875 C85.7142138 194.21236543 88.43971388 190.71407826 91.21435547 187.23632812 C92.29769944 185.90975159 93.38231047 184.58420866 94.46826172 183.25976562 C98.09987689 178.80314346 101.59415267 174.24734561 105.08154297 169.67773438 C107.61544254 166.36001793 110.19262466 163.07741347 112.77685547 159.79882812 C117.04803217 154.37766041 121.29318837 148.93683698 125.52685547 143.48632812 C131.95522847 135.21231407 138.41955144 126.96728338 144.90478516 118.73779297 C150.15911642 112.06968257 155.39303536 105.38849027 160.55541992 98.64868164 C162.9449714 95.5320974 165.35036822 92.42889179 167.77294922 89.33789062 C173.97388908 81.42345265 180.12194457 73.46954302 186.15185547 65.42382812 C186.73161133 64.66312012 187.31136719 63.90241211 187.90869141 63.11865234 C191.58659638 58.169627 194.2695897 53.22432141 196.52685547 47.48632812 C188.6026656 54.19513582 181.07406397 61.33847964 174.29664612 69.21179199 C170.79813248 73.22142284 167.14583827 77.04086939 163.40161133 80.8203125 C162.39040977 81.84618973 162.39040977 81.84618973 161.35877991 82.89279175 C159.15619015 85.1249814 156.94962586 87.35316769 154.74169922 89.58007812 C153.98332827 90.3450209 153.22495731 91.10996368 152.44360542 91.89808655 C148.43957602 95.93452993 144.43160166 99.96701594 140.42114258 103.99707031 C137.10659311 107.32952389 133.80079618 110.67031308 130.50219727 114.01855469 C126.50677599 118.07400867 122.49697181 122.11468948 118.47628975 126.14509583 C116.9493287 127.68062651 115.4275156 129.22129426 113.91099358 130.76713562 C111.79534894 132.92151249 109.66173083 135.05637159 107.52270508 137.1875 C106.58973099 138.15047501 106.58973099 138.15047501 105.63790894 139.13290405 C102.76179733 141.96153227 101.32464928 143.36162824 97.25146484 143.99829102 C93.49586926 143.29260249 92.02243589 141.6814537 89.37451172 138.95507812 C88.91129013 138.48573853 88.44806854 138.01639893 87.97080994 137.53283691 C86.49568053 136.03086439 85.04290476 134.50916302 83.58935547 132.98632812 C82.61739614 131.99282011 81.6440994 131.00061863 80.66943359 130.00976562 C76.72047483 125.96980899 72.85429464 121.88190823 69.16137695 117.60546875 C65.63635238 113.55516478 61.90940838 109.75699414 58.08935547 105.98632812 C57.40558838 105.30634766 56.72182129 104.62636719 56.01733398 103.92578125 C53.85628492 101.77681887 51.69200821 99.63115534 49.52685547 97.48632812 C46.6696953 94.65598976 43.81602092 91.8222014 40.96435547 88.98632812 C40.00154663 88.0359668 40.00154663 88.0359668 39.01928711 87.06640625 C35.19174033 83.25933297 31.56932262 79.33340081 28.0556488 75.23434448 C25.30665628 72.09115711 22.26182171 69.25572816 19.24951172 66.36914062 C17.52685547 64.48632812 17.52685547 64.48632812 17.52685547 62.48632812 C16.86685547 62.48632812 16.20685547 62.48632812 15.52685547 62.48632812 C15.52777726 63.38730948 15.52869905 64.28829084 15.52964878 65.21657467 C15.55170172 87.10638613 15.5682659 108.99619568 15.57866764 130.88601589 C15.58383112 141.47162207 15.5908748 152.05722084 15.60229492 162.64282227 C15.61224018 171.86570572 15.61870852 181.08858381 15.62094396 190.31147248 C15.62225134 195.19809225 15.62533889 200.08469669 15.63258553 204.97131157 C15.63934325 209.56520274 15.64147294 214.15907217 15.63996315 218.75296783 C15.64023959 220.44412161 15.64224618 222.13527606 15.64606094 223.82642555 C15.65099434 226.12510988 15.64985509 228.42371082 15.64710999 230.72239685 C15.64803178 232.01198524 15.64895357 233.30157362 15.6499033 234.63024044 C15.52685547 237.48632812 15.52685547 237.48632812 14.52685547 238.48632812 C11.81131155 238.59973787 9.12215503 238.65050832 6.40576172 238.65429688 C5.59066635 238.65762527 4.77557098 238.66095367 3.93577576 238.66438293 C2.20824754 238.66945554 0.48070949 238.67179116 -1.24682617 238.67163086 C-3.89599698 238.67381604 -6.54475069 238.69196434 -9.19384766 238.7109375 C-10.86897643 238.71387156 -12.5441072 238.71585627 -14.21923828 238.71679688 C-15.01510849 238.72398239 -15.8109787 238.73116791 -16.63096619 238.73857117 C-22.24432226 238.7151504 -22.24432226 238.7151504 -24.47314453 236.48632812 C-24.6712783 233.43235273 -24.74226713 230.46891856 -24.72711182 227.41369629 C-24.73179179 225.98604816 -24.73179179 225.98604816 -24.73656631 224.52955866 C-24.74458337 221.32042518 -24.73820825 218.11147885 -24.73193359 214.90234375 C-24.73464181 212.60975534 -24.73820178 210.31716779 -24.74255371 208.02458191 C-24.75170014 201.78300801 -24.74812419 195.54149996 -24.74179554 189.29992485 C-24.73674718 182.78120618 -24.74142374 176.2624933 -24.74456787 169.74377441 C-24.74844456 158.09264944 -24.74221241 146.44155464 -24.7320492 134.79043442 C-24.72311326 124.21883591 -24.72466517 113.64728131 -24.73388672 103.07568359 C-24.74458118 90.80972782 -24.74857835 78.54380333 -24.74266219 66.277843 C-24.73953717 59.78098718 -24.73914768 53.28416164 -24.74573517 46.78730774 C-24.75149401 40.68067207 -24.74753863 34.57411969 -24.73594666 28.46749306 C-24.73329222 26.22042797 -24.73407842 23.97335592 -24.73847198 21.72629356 C-24.74389806 18.67041964 -24.73712922 15.61481641 -24.72711182 12.55895996 C-24.73380398 11.20985842 -24.73380398 11.20985842 -24.74063134 9.83350229 C-24.66020036 -2.7254936 -9.92475804 0.14352369 0 0 Z " fill="#0A2B3E" transform="translate(404.47314453125,351.513671875)"/>
<path d="M0 0 C-0.42594588 1.44096586 -0.86626633 2.87768712 -1.3125 4.3125 C-1.55613281 5.11300781 -1.79976562 5.91351563 -2.05078125 6.73828125 C-3.04182023 9.09964573 -4.08074943 10.33879993 -6 12 C-6.99 11.67 -7.98 11.34 -9 11 C-10.90801574 12.20129367 -10.90801574 12.20129367 -12.6875 13.9375 C-13.62142578 14.78634766 -13.62142578 14.78634766 -14.57421875 15.65234375 C-15.04472656 16.09707031 -15.51523437 16.54179687 -16 17 C-16.66 16.67 -17.32 16.34 -18 16 C-15.38308836 13.32529045 -12.75518292 10.66165519 -10.125 8 C-9.00544922 6.8553125 -9.00544922 6.8553125 -7.86328125 5.6875 C-7.14785156 4.965625 -6.43242188 4.24375 -5.6953125 3.5 C-5.03547363 2.8296875 -4.37563477 2.159375 -3.69580078 1.46875 C-2 0 -2 0 0 0 Z " fill="#E6EBEB" transform="translate(601,399)"/>
<path d="M0 0 C0.33 1.32 0.66 2.64 1 4 C0.4225 4.39832031 -0.155 4.79664063 -0.75 5.20703125 C-1.4925 5.73683594 -2.235 6.26664063 -3 6.8125 C-3.7425 7.33457031 -4.485 7.85664062 -5.25 8.39453125 C-5.8275 8.92433594 -6.405 9.45414063 -7 10 C-7 10.99 -7 11.98 -7 13 C-8.98 13.66 -10.96 14.32 -13 15 C-4.08635097 1.36211699 -4.08635097 1.36211699 0 0 Z " fill="#0D2738" transform="translate(510,523)"/>
<path d="M0 0 C3.45201639 1.47721422 5.64961936 3.43794001 8.25 6.125 C8.95640625 6.84945313 9.6628125 7.57390625 10.390625 8.3203125 C11.18726563 9.15175781 11.18726563 9.15175781 12 10 C11.34 10.66 10.68 11.32 10 12 C7.66666667 9.66666667 5.33333333 7.33333333 3 5 C2.14341797 4.20529297 2.14341797 4.20529297 1.26953125 3.39453125 C0 2 0 2 0 0 Z " fill="#1F3140" transform="translate(677,294)"/>
<path d="M0 0 C4.62 0.66 9.24 1.32 14 2 C12 4 12 4 8.125 4.1875 C5.28539226 4.120382 2.71483095 3.90494365 0 3 C0 2.01 0 1.02 0 0 Z " fill="#122839" transform="translate(552,232)"/>
<path d="M0 0 C3.58513106 1.62184501 6.58992323 3.79256239 9.75 6.125 C11.22726562 7.21167969 11.22726562 7.21167969 12.734375 8.3203125 C13.48203125 8.87460937 14.2296875 9.42890625 15 10 C14.34 10.66 13.68 11.32 13 12 C10.82737873 10.38247153 8.66200042 8.75661363 6.5 7.125 C5.87996094 6.66480469 5.25992187 6.20460938 4.62109375 5.73046875 C3.04364108 4.53437826 1.51738202 3.27143274 0 2 C0 1.34 0 0.68 0 0 Z " fill="#EEF2F1" transform="translate(380,627)"/>
<path d="M0 0 C0.66 0.33 1.32 0.66 2 1 C1.67 1.99 1.34 2.98 1 4 C0.34 4 -0.32 4 -1 4 C-1.33 5.32 -1.66 6.64 -2 8 C-2.99 8 -3.98 8 -5 8 C-5.66 9.32 -6.32 10.64 -7 12 C-7 8.19654123 -5.86213669 7.22298985 -3.5 4.3125 C-2.8503125 3.50425781 -2.200625 2.69601562 -1.53125 1.86328125 C-1.0259375 1.24839844 -0.520625 0.63351562 0 0 Z " fill="#0B1C2B" transform="translate(549,471)"/>
<path d="M0 0 C3.23693164 1.48483103 5.9325625 3.32707435 8.75 5.5 C9.54921875 6.1084375 10.3484375 6.716875 11.171875 7.34375 C11.77515625 7.8903125 12.3784375 8.436875 13 9 C13 9.66 13 10.32 13 11 C9.76306836 9.51516897 7.0674375 7.67292565 4.25 5.5 C3.45078125 4.8915625 2.6515625 4.283125 1.828125 3.65625 C1.22484375 3.1096875 0.6215625 2.563125 0 2 C0 1.34 0 0.68 0 0 Z " fill="#ECEFEF" transform="translate(657,275)"/>
<path d="M0 0 C0.99 0.33 1.98 0.66 3 1 C-0.465 3.97 -0.465 3.97 -4 7 C-4 4 -4 4 -2 1.8125 C-1.34 1.214375 -0.68 0.61625 0 0 Z M-7 6 C-6.34 6.33 -5.68 6.66 -5 7 C-5.99 7 -6.98 7 -8 7 C-7.67 6.67 -7.34 6.34 -7 6 Z " fill="#EAEEEE" transform="translate(672,654)"/>
<path d="M0 0 C-1.0625 1.5 -1.0625 1.5 -3 3 C-6.6875 3.1875 -6.6875 3.1875 -10 3 C-10 2.34 -10 1.68 -10 1 C-8.71073008 0.63720544 -7.41846728 0.28503302 -6.125 -0.0625 C-5.40570312 -0.25972656 -4.68640625 -0.45695313 -3.9453125 -0.66015625 C-2 -1 -2 -1 0 0 Z " fill="#EEF1F1" transform="translate(569,710)"/>
<path d="M0 0 C0.66 0.33 1.32 0.66 2 1 C0.33248852 4.94139078 -2.22710649 7.7892812 -5 11 C-5 7.58678765 -4.33132534 6.60527115 -2.5 3.8125 C-2.0359375 3.09707031 -1.571875 2.38164063 -1.09375 1.64453125 C-0.7328125 1.10183594 -0.371875 0.55914063 0 0 Z " fill="#EAEFEF" transform="translate(717,601)"/>
<path d="M0 0 C0.33 0.66 0.66 1.32 1 2 C-0.98 4.64 -2.96 7.28 -5 10 C-5.66 9.34 -6.32 8.68 -7 8 C-3.375 2.25 -3.375 2.25 0 0 Z " fill="#EBEEEF" transform="translate(485,550)"/>
<path d="M0 0 C0.66 0 1.32 0 2 0 C2 0.66 2 1.32 2 2 C2.8971875 2.37125 2.8971875 2.37125 3.8125 2.75 C6.28647521 4.16370012 7.43370255 5.65055383 9 8 C6 8 6 8 4.39453125 6.50390625 C3.61142578 5.54291016 3.61142578 5.54291016 2.8125 4.5625 C2.28269531 3.92441406 1.75289063 3.28632813 1.20703125 2.62890625 C0 1 0 1 0 0 Z " fill="#21303D" transform="translate(476,470)"/>
<path d="M0 0 C0 0.99 0 1.98 0 3 C-3.96 2.67 -7.92 2.34 -12 2 C-12 1.67 -12 1.34 -12 1 C-7.93631321 0.22596442 -4.13574827 -0.0984702 0 0 Z " fill="#133346" transform="translate(553,710)"/>
<path d="M0 0 C2.62187494 1.04874998 3.79371361 1.64931313 5.25 4.125 C5.4975 4.74375 5.745 5.3625 6 6 C6.66 6 7.32 6 8 6 C7.67 6.99 7.34 7.98 7 9 C5.83037314 7.69013727 4.66437056 6.3770374 3.5 5.0625 C2.8503125 4.33160156 2.200625 3.60070312 1.53125 2.84765625 C0 1 0 1 0 0 Z " fill="#E2E7E7" transform="translate(488,424)"/>
<path d="M0 0 C0 3.99904969 -1.72586967 5.80200422 -4 9 C-4.99 8.34 -5.98 7.68 -7 7 C-4.69 4.69 -2.38 2.38 0 0 Z " fill="#172A3A" transform="translate(562,378)"/>
<path d="M0 0 C1 2 1 2 0.9375 4 C0 6 0 6 -3.0625 7.25 C-4.031875 7.4975 -5.00125 7.745 -6 8 C-4.02 5.36 -2.04 2.72 0 0 Z " fill="#071929" transform="translate(528,498)"/>
<path d="M0 0 C0.33 0.66 0.66 1.32 1 2 C-0.65 4.31 -2.3 6.62 -4 9 C-4.33 7.68 -4.66 6.36 -5 5 C-4.01 4.67 -3.02 4.34 -2 4 C-0.79117904 1.99983534 -0.79117904 1.99983534 0 0 Z " fill="#EBEEEF" transform="translate(557,458)"/>
<path d="M0 0 C3.26460973 1.80412643 4.88929795 2.83394693 7 6 C6.01 6.33 5.02 6.66 4 7 C3.34 5.35 2.68 3.7 2 2 C1.34 2 0.68 2 0 2 C0 1.34 0 0.68 0 0 Z " fill="#172837" transform="translate(370,620)"/>
<path d="M0 0 C0.66 0.33 1.32 0.66 2 1 C1.875 2.875 1.875 2.875 1 5 C-2.0625 6.25 -2.0625 6.25 -5 7 C-3.35 4.69 -1.7 2.38 0 0 Z " fill="#061729" transform="translate(502,531)"/>
<path d="M0 0 C0.99 0.33 1.98 0.66 3 1 C3.8125 2.875 3.8125 2.875 4 5 C3.01 6.485 3.01 6.485 2 8 C0.74335022 5.09399739 0 3.20395416 0 0 Z " fill="#EDF1F0" transform="translate(739,384)"/>
<path d="M0 0 C1.65 0.33 3.3 0.66 5 1 C5 1.99 5 2.98 5 4 C2.03 3.67 -0.94 3.34 -4 3 C-2.68 2.67 -1.36 2.34 0 2 C0 1.34 0 0.68 0 0 Z " fill="#153546" transform="translate(474,267)"/>
</svg>
